<?xml version="1.0" ?><svg enable-background="new 0 0 200 200" version="1.1" viewBox="0 0 200 200" xml:space="preserve" xmlns="http://www.w3.org/2000/svg" xmlns:xlink="http://www.w3.org/1999/xlink"><g id="Layer_4"/><g id="Layer_2"><ellipse cx="100" cy="70.885" fill="#F40000" rx="46.82" ry="37.52"/><polygon fill="#FFC200" points="100,136.395 107.953,140.406 110.302,190.814 89.372,190.814 91.76,140.406  "/></g><g id="Layer_3"><path d="M91.76,105.83c-21.99-3.17-38.58-17.57-38.58-34.85c0-17.28,16.59-31.67,38.58-34.84   c-15.07,7.53-24.99,20.32-24.99,34.84C66.77,85.51,76.69,98.3,91.76,105.83z" opacity="0.2"/><path d="M100,35.818v72.587c0,0-14.256-4.661-17.047-25.313C80.163,62.442,86.07,34.311,100,35.818z" opacity="0.2"/><polygon fill="#FFED00" points="100.37,190.814 100.37,133.884 93.279,141.977 89.372,190.814  "/><circle cx="99.681" cy="28.554" fill="#FFED00" r="4.81"/><circle cx="99.681" cy="113.41" fill="#FFED00" r="4.81"/><circle cx="139.195" cy="121.57" fill="#FFED00" r="4.81"/></g><g id="Layer_1"><path d="M123.26,33.98c-4.36-1.64-9.07-2.68-13.99-3.01c0.25-0.83,0.38-1.7,0.38-2.61c0-3.88-2.39-7.2-5.78-8.59   V8.63c0-1.93-1.56-3.5-3.5-3.5c-1.93,0-3.5,1.57-3.5,3.5v11.14c-3.38,1.39-5.78,4.71-5.78,8.59c0,0.89,0.14,1.74,0.37,2.56   c-5.2,0.28-10.17,1.35-14.75,3.06c-16.25,6.09-27.69,20.38-27.69,37c0,16.09,10.71,29.99,26.12,36.39c5,2.08,10.49,3.36,16.27,3.68   c-0.2,0.75-0.32,1.54-0.32,2.36c0,3.88,2.4,7.2,5.78,8.59v11.87l-5.7,3.65c-0.95,0.61-1.54,1.63-1.61,2.76l-2.75,50.9   c-0.05,0.96,0.3,1.9,0.96,2.59c0.66,0.7,1.58,1.1,2.54,1.1h20.13c0.96,0,1.88-0.4,2.54-1.1c0.66-0.69,1.01-1.63,0.96-2.59   l-1.09-20.06c-0.1-1.93-1.75-3.4-3.68-3.3c-1.93,0.1-3.41,1.75-3.31,3.68l0.89,16.37H94l2.46-45.42l3.91-2.51l3.92,2.51l0.74,13.58   c0.1,1.93,1.76,3.42,3.68,3.3c1.93-0.1,3.41-1.75,3.31-3.68l-0.84-15.37c-0.06-1.13-0.66-2.16-1.61-2.76l-5.7-3.65V122   c3.39-1.39,5.78-4.71,5.78-8.59c0-0.84-0.12-1.64-0.33-2.41c5.51-0.38,10.75-1.65,15.53-3.63c15.42-6.4,26.13-20.3,26.13-36.39   C150.98,54.35,139.53,40.05,123.26,33.98z M100.37,26.08c1.26,0,2.28,1.02,2.28,2.28s-1.02,2.28-2.28,2.28   c-1.25,0-2.28-1.02-2.28-2.28S99.12,26.08,100.37,26.08z M100.37,115.69c-1.25,0-2.28-1.02-2.28-2.28s1.03-2.28,2.28-2.28   c1.26,0,2.28,1.02,2.28,2.28S101.63,115.69,100.37,115.69z M115.32,70.98c0,9.24-1.78,17.87-5.02,24.32   c-1.9,3.81-4.29,6.63-6.72,7.96c-0.72,0.39-1.43,0.65-2.15,0.77c-0.16,0.03-0.31,0.08-0.46,0.13c-0.2-0.01-0.4-0.03-0.6-0.03   c-0.23,0-0.46,0.02-0.69,0.04c-0.16-0.06-0.32-0.12-0.49-0.15c-0.53-0.11-1.07-0.29-1.61-0.55c-5.89-2.79-12.16-15.12-12.16-32.49   c0-17.36,6.27-29.69,12.16-32.48c0.54-0.26,1.08-0.44,1.61-0.55c0.32-0.06,0.61-0.18,0.89-0.32c0.1,0,0.19,0.01,0.29,0.01   c0.06,0,0.11-0.01,0.16-0.01c0.28,0.14,0.58,0.25,0.9,0.3c0.72,0.13,1.43,0.38,2.16,0.78C109.42,41.88,115.32,53.98,115.32,70.98z    M56.02,70.98c0-16.23,13.52-29.78,31.31-32.6c-5.52,7.28-8.91,19.15-8.91,32.6s3.39,25.32,8.91,32.61   C69.54,100.76,56.02,87.22,56.02,70.98z M113.5,103.45c1.11-1.48,2.13-3.16,3.06-5.01c3.72-7.4,5.76-17.15,5.76-27.46   c0-13.26-3.36-25.14-8.82-32.46c17.38,3.1,30.48,16.48,30.48,32.46S130.88,100.34,113.5,103.45z" fill="#280101"/><path d="M126.96,91.202c0.684,0.656,1.58,0.984,2.475,0.984s1.792-0.328,2.475-0.984   c5.614-5.392,8.706-12.562,8.706-20.188c0-7.626-3.092-14.795-8.706-20.187c-1.367-1.312-3.583-1.312-4.95,0   c-1.367,1.313-1.367,3.441,0,4.755c8.86,8.51,8.86,22.357,0,30.866C125.594,87.76,125.594,89.888,126.96,91.202z" fill="#FFFFFF" opacity="0.5"/><path d="M139.19,112.15c-5.19,0-9.41,4.23-9.41,9.42s4.22,9.42,9.41,9.42c5.2,0,9.42-4.23,9.42-9.42   S144.39,112.15,139.19,112.15z M139.19,123.99c-1.33,0-2.41-1.09-2.41-2.42c0-1.33,1.08-2.42,2.41-2.42c1.34,0,2.42,1.09,2.42,2.42   C141.61,122.9,140.53,123.99,139.19,123.99z" fill="#280101"/></g></svg>