<?xml version="1.0" ?><svg viewBox="0 0 64 64" xmlns="http://www.w3.org/2000/svg"><g id="a"/><g id="b"/><g id="c"/><g id="d"/><g id="e"/><g id="f"/><g id="g"/><g id="h"/><g id="i"/><g id="j"/><g id="k"/><g id="l"/><g id="m"/><g id="n"/><g id="o"><path d="M45.2,32.37l-10.63,.65,2.16,6.2,4.56,2,3.85-.2,.07-8.65Z" fill="#d7e5eb" id="p"/><path d="M31.91,53.7l-6.3-1.64-7.88,6.81c.2,.09,.41,.14,.64,.14h17.6c.38,0,.57-.46,.31-.73l-4.37-4.57Z" fill="#d7e5eb" id="q"/><path d="M31.91,53.7l6.72-9.01-1-8.9-1.94-5.36-8.37-3.97-13.01,4.85c-.61,.23-1.09,.69-1.35,1.28l-3.36,7.64c-.26,.59-.25,1.26,.01,1.84l7.33,16.01c.16,.36,.45,.63,.79,.78l14.18-5.16h0Z" fill="#e2eef2" id="r"/><path d="M45.14,41.02l-4.42,1.08-1.06,4.18,4.45,1.37c.48,.15,.97-.21,.97-.71l.05-5.92Z" fill="#e2eef2" id="s"/><path d="M39.66,46.29l5.47-5.27-7.51-5.23-5.72,17.91,7.75-7.41Z" fill="#f0f4f6" id="t"/><path d="M27.11,5.28c-.13-.17-.24-.26-.34-.28-.02,0-.04,0-.05,0-.12,.02-.19,.18-.18,.48l.78,20.97,5.12-4.66,.88-8.38c-2.07-2.71-4.14-5.43-6.21-8.14h0Z" fill="#e2eef2" id="u"/><path d="M27.32,26.46l6.51,5.89,3.81,3.45,7.57-3.42h0l6.65-3.01c.59-.27,1.04-.76,1.26-1.37l1.42-3.93c.19-.54-.06-1.13-.58-1.36l-20.63-9.29-6,13.04Z" fill="#f0f4f6" id="v"/><path d="M17.73,58.86l16.36-2.88-2.18-2.29-14.18,5.17Z" fill="#c0d8df" id="w"/><path d="M45.14,41.02l-3.24,5.95-2.23-.68,5.47-5.27Z" fill="#d7e5eb" id="x"/></g><g id="y"/><g id="a`"/><g id="aa"/><g id="ab"/><g id="ac"/><g id="ad"/><g id="ae"/><g id="af"/><g id="ag"/><g id="ah"/><g id="ai"/><g id="aj"/><g id="ak"/><g id="al"/><g id="am"/><g id="an"/><g id="ao"/><g id="ap"/><g id="aq"/><g id="ar"/><g id="as"/><g id="at"/><g id="au"/><g id="av"/><g id="aw"/><g id="ax"/><g id="ay"/><g id="b`"/><g id="ba"/><g id="bb"/><g id="bc"/><g id="bd"/><g id="be"/><g id="bf"/><g id="bg"/></svg>